<svg version="1.1" id="logo-svg" xmlns="http://www.w3.org/2000/svg" xmlns:xlink="http://www.w3.org/1999/xlink" x="0px" y="0px"
	 viewBox="0 0 538.4 351.2" style="enable-background:new 0 0 538.4 351.2;" xml:space="preserve">
<style type="text/css">
	.st0{clip-path:url(#SVGID_2_);}
	.st1{fill:url(#SVGID_3_);}
</style>
<g>
	<defs>
		<path id="SVGID_1_" d="M459.2,119.8l3.3,16.8c-3.2-0.3-6.4-1.1-9.8-2.2C455,129.5,457.3,124.5,459.2,119.8 M455.8,153.5
			c-3.7,0.9-7.7-0.5-8.5-4.4c-0.4-2.2,0.4-4.5,1.7-5.8c3.3,2.4,7.5,4.8,12.1,6.5C460,151.6,458.2,153.1,455.8,153.5 M442,133.7
			c-13.9,2.7-19.7,18.4-17.7,28.8c3.1,15.7,17.9,24.6,34.2,21.4c14.9-2.9,25.4-14.5,26.1-30.1c3.9,0,8.1-0.5,12.5-1.4
			c20-3.9,45.2-19.8,40.7-43.8c-2.3-12.5-13.7-17.4-24.6-15.3c-4.1,0.6-7.4,2.1-9.3,4.3c3.1,0.5,4.9,2.6,5.4,5.2
			c2.3,12.9-10,28.1-28.5,32.4c-4.1-10.2-11.1-22.2-12.8-30.9c5.5-8.5,7.1-12.9,6.3-16.7c-0.8-3.9-4.7-5.8-7.9-5.2
			c-5.5,1.1-12.3,7.2-10.1,23.1c-3.6,8.9-8.8,19.8-13.5,28.2C442.7,133.5,442.3,133.6,442,133.7 M424.4,108.8c1-0.2,2,0.3,2.2,1.5
			c1.1,5.6-5.6,17.1-9.8,17.9c-3.1,0.6-2.3-3.5-1.8-4.6C417.7,115.5,422,109.3,424.4,108.8 M445.6,129.2
			c-4.8,10.7-15.1,18.2-21.1,19.4c-7.7,1.5-11.3-1.5-12.5-7.5c-0.3-1.5-0.4-4-0.2-6.7c1.3,4.9,4.5,7.5,10,6.4
			c14.5-2.8,24.1-18.7,22.2-32c-1.3-9.3-8-14.8-18.6-12.7c-25.2,4.9-40.2,38.4-36.2,58.6c2.3,12,9.7,19.8,23.1,17.2
			c15.1-2.9,28.8-18.2,33.7-41.5L445.6,129.2z M369.6,82.7c-0.5,8.3,5.5,13.7,13.4,12.1c7.9-1.5,14.5-9.4,15-17.7
			c0.5-8.3-5.3-13.7-13.2-12.2C376.9,66.6,370.1,74.4,369.6,82.7 M389.2,105l-23.1,4.5l-9.8,37.1c-4.6,15.5-7,36.9,11.8,33.2
			c13.5-2.6,19-21.3,21.3-33.1l0.5-2.9c-2.3,6.7-4.9,11.6-8.8,12.4c-1.9,0.4-3.2-1-3.1-3.3c-0.2-2.6,1.1-7.1,2.6-13.1L389.2,105z
			 M322.8,123.4l5-1l-8.1,31.2c-4.6,15.5-7,36.9,11.8,33.2c14.4-2.8,21.4-21.6,23.7-33.4l0.3-3.1c-2.8,6.8-5.6,12.3-10.1,13.1
			c-2.2,0.4-3.6-1.1-4-3c-0.6-2.9,1.5-9.7,2.4-13.3l7.4-29.5l7.2-1.4l1.5-5.8l-7.2,1.4l6.4-25.4c-5.4,3.4-16.5,7.6-23.7,6.2
			l-6.2,23.8l-4.8,0.9L322.8,123.4z M290.1,141.1c1.5-0.3,2.1,0.7,2.2,1.5c0.9,4.6-2.1,25.3-4.5,37.1c-1.8,8.2-2.5,15.2-1.1,22.6
			c3.3,16.9,18.5,28.6,34.6,25.4c13.4-2.6,18.8-12.7,17.1-21.6c-1-5.1-5.1-9.1-9.2-9c1,3.2-2.4,5.5-4.8,5.5c0,0-16.9,3-15.3-21
			c1.1-17.5,10.9-38.9,8.2-52.8c-1.3-6.5-5.8-10.6-14.7-8.9c-7.5,1.5-13.1,6.6-16.7,14.4l-0.9,1.9l-1.4,0.3l4.2-12l-21.4,4.2
			c-4.8,21-14.3,55.4-21.5,75.6c3.6-2.3,8.6-4.9,14.7-6.4c5.2-1.4,12.3-1.5,12.3-1.5l6.2-27.7C279.2,164.6,284.8,142.2,290.1,141.1
			 M236.4,145.4c1-0.2,2,0.3,2.2,1.5c1.1,5.6-5.6,17.1-9.8,17.9c-3.1,0.6-2.3-3.5-1.8-4.6C229.7,152,234,145.8,236.4,145.4
			 M257.6,165.8c-4.8,10.7-15.1,18.2-21.1,19.4c-7.7,1.5-11.3-1.5-12.5-7.5c-0.3-1.5-0.4-4-0.2-6.7c1.3,4.9,4.5,7.5,9.9,6.4
			c14.6-2.8,24.1-18.7,22.2-32c-1.3-9.3-8-14.8-18.6-12.7c-25.2,4.9-40.1,38.4-36.2,58.6c2.3,12,9.7,19.8,23.1,17.2
			c15.1-2.9,28.8-18.2,33.7-41.5L257.6,165.8z M177.8,215.7c9.9-37.8,33-85.3,52-89c3.9-0.8,8.5,0.1,9,3.2c10.2-6.2,12-13,10.6-20.2
			c-1.2-6.3-8.8-11.3-18.5-9.4c-20.9,4.1-37.4,29.5-52.8,92.3c0.2-16.4,0.7-33,2.7-47.2l-23.6,4.6c2,7.8-0.7,46.5-1.8,70
			C162.8,217.8,169.9,216.4,177.8,215.7 M133.2,165.4c1-0.2,2,0.3,2.2,1.5c1.1,5.6-5.6,17.1-9.8,17.9c-3.1,0.6-2.3-3.5-1.8-4.6
			C126.5,172.1,130.8,165.9,133.2,165.4 M154.4,185.8c-4.8,10.7-15.1,18.2-21.1,19.4c-7.7,1.5-11.3-1.5-12.5-7.5
			c-0.3-1.5-0.4-4-0.2-6.7c1.3,4.9,4.5,7.5,9.9,6.4c14.6-2.8,24.1-18.7,22.2-32c-1.3-9.3-8-14.8-18.6-12.7
			c-25.2,4.9-40.1,38.4-36.2,58.6c2.3,12,9.7,19.8,23.1,17.2c15.1-2.9,28.8-18.2,33.7-41.5L154.4,185.8z M65.4,195
			c2.8,14.4-6.3,26.1-17.3,28.2c-6.8,1.3-13.7-1.2-15.1-8.3c-1.1-5.5,2.6-8.3,5-8.8c2.1-0.4,4.5,0.4,4.9,2.6c0.1,0.5,0.1,1.4,0,1.8
			c0.2,0.1,0.8,0.2,1.8,0c5.3-1,12.8-8.2,10.9-17.8c-1.9-9.8-12.6-16.4-26.1-13.8c-20,3.9-33,24.7-28.8,46.3
			c4.5,23.1,26.9,36.2,50.5,31.6c29.1-5.7,45-35.2,40.3-59.4c-3.6-18.3-15.5-30.2-17.2-39.1c-1.3-6.5,1.8-11.6,7.7-12.7
			c4.3-0.8,8.3,1.6,9.1,5.5c0.6,3.1-0.7,7.6-4.6,9.1c2.1,0.8,4.6,0.7,6.8,0.3c11.8-2.3,18.5-14.6,16.4-25.2
			c-2.6-13.4-17.6-21.3-34.9-17.9c-19.9,3.9-32.2,21-28.6,39.1C49,171,62.8,181.3,65.4,195 M422.6,297.5l-0.9,0.3
			c-4.1,1.2-5.7,0.1-6.2-1.4c-0.8-2.7,5.4-4.6,8.2-5.4c5.1-1.5,10.4-2.6,15.5-3.6C433.5,293.5,427.2,296.2,422.6,297.5 M481,248.3
			c-2.6,2.1-5.3,4-8.2,6.1c3.2-21.2,4.6-45.7,9.4-62.6l-21.5,6.2l-4.5,27.3c-1.2,7.8-3.5,18.2-6.1,19.3c-3.3,1.5-3.8-2.1-2.1-12.1
			l5.4-32.5l-20.1,5.8c-3.8,15.8-9.9,43.7-6.7,55.1c2,6.9,7.5,10.2,13.7,8.4c8.1-2.3,12.2-12.1,14.3-23.7l1.1,0.2
			c-1.1,7.9-2.6,14.6-4.5,20.4l-36.3,17.2c-11.4,5.5-23.7,15.7-20.1,28.2c3.3,11.4,17.1,13.7,28.5,10.4l1.6-0.4
			c16.5-4.7,30.5-17.9,39.7-35.9l1.4-3.3c3.2-0.7,6.2-1.4,9.3-2.3c17.9-5.1,46.6-18.9,40.3-40.8c-3.9-13.7-22.6-12.8-29.9-4.8
			C490.3,235.3,489.5,241.3,481,248.3 M394.9,222l4.5-1.3l-5,29.6c-3,14.7-3.5,34.8,13.6,29.9c12.6-3.6,17.2-21.5,18.3-32.6l0-2.9
			c-1.6,6.4-3.7,11.7-7.3,12.7c-2,0.6-3.4-0.7-3.9-2.4c-0.8-2.7,0.6-9.1,1.1-12.5l4.5-28l6.6-1.9l1-5.5l-6.6,1.9l5.9-35.1
			c-4.7,3.6-14.6,8.4-21.4,7.7l-5.9,33.5l-4.4,1.3L394.9,222z M318.2,268.8c-1.4,7-3.3,14.5-5.5,15.1c-6.4,1.8-0.7-31.4,4.9-33
			C321,249.9,319,266.4,318.2,268.8 M353.9,219.2c2.2,21.2-7.1,58.4-13.1,60.2c-4.1,1.2-2.7-8.3-1.8-13.3l5.7-34.9l-18.9,5.4
			l-1,10.1l-0.6,0.2c-1-5.1-4.5-10.4-11.5-8.4c-18.1,5.2-29.9,41.7-24.2,61.8c2,6.9,7.9,11.7,14.2,10c7.8-2.2,12.2-12.9,14.3-24.2
			c1.1,9.7,6.8,18.3,16.6,15.5c17.8-5.1,23.5-34.3,26-47.7l2.2-11.6l1.9-0.5c1.4-0.4,2,0.4,2.2,1.2c1.4,5-7.9,25.6-4.1,38.8
			c1.7,5.9,5.7,10,13.9,7.7c13.3-3.8,18.4-23.7,18.8-35.6c-1.7,6.6-3.4,11.1-7.3,12.2c-1.4,0.4-2.5-0.5-2.9-1.9
			c-2.2-7.8,7-24.6,3.7-36c-1.7-5.9-6.2-9.4-14.3-7c-4.5,1.3-7.5,4.4-9.6,8.2l-1.2,0.4c1.1-6.2,3.4-12.8,3.7-14.1L353.9,219.2z
			 M265.4,240.9c3.7,12.8-2.9,32.2-13.6,39c3.4-19.4,5.7-36.6,12.3-42.4C264.6,238.6,265.1,239.8,265.4,240.9 M207.2,316.7
			c-3.1,0.9-6.9-0.6-7.9-3.5c-0.6-1.7,0.4-3.3,2.3-3.9c-3.1-3.7-9.1-4.7-14.9-3c-11.9,3.4-17,16-13.6,26.2
			c5.1,15.3,22.3,21.8,38.4,17.2c27.3-7.8,34.8-39.9,39.9-68.2l0.3,1.1c1.4,4.8,7.4,5.7,13.5,3.9c17.8-5.1,27.2-28.4,22.2-45.7
			c-7.7-26.8-38.2-33.8-66.3-25.7c-41.2,11.8-51.8,43.2-46,63.4c4.4,15.3,21,23.7,35,19.7c15.9-4.6,23.2-20.9,20.3-31.2
			c-2.1-7.5-9.6-10.9-14.5-9.5c0.7,0.6,1,1.2,1.3,2c0.8,3-1.5,5.3-3.9,6c-3.6,1-6-1.6-7-4.9c-2.8-9.8,6.7-27.8,26.4-33.4
			c11.4-3.3,20.9-1.8,27,3.9c1.6,1.6,0.8,2.3-0.3,2.6C226,243.2,241.7,306.8,207.2,316.7 M233.3,52.7c1.2-0.2,1.6,0.6,1.7,1.3
			c0.7,4.9-9.3,20.1-7.7,31.4c0.7,5.1,3.6,8.9,10.5,7.9c11.3-1.6,17.7-17.4,19.4-27.2c-2.1,5.2-4,8.7-7.4,9.2
			c-1.2,0.2-2-0.7-2.2-1.9c-1-6.7,8.5-19.4,7.1-29.2c-0.7-5.1-4.1-8.4-11-7.4c-5.9,0.8-11.1,4.7-14.2,10.6l-0.7,1.5l-1.7,0.2
			l3.8-8.4c1.5-3.6,3.8-8.3,6.3-13c6,1.9,11.6,3.1,16,2.4l0.7-0.1c12.9-2,20.2-8.9,18.8-18.6C271.2,2,259.8-0.9,252.4,0.2
			c-9.5,1.4-17.1,6.1-23.4,14.1c-13.9-2.8-29.9-7.2-43.3-5.3c-30.8,4.5-48.5,24.6-45.6,44.8c1.8,12.5,13.4,19.1,23.6,17.6
			c14.5-2.1,19.4-14.6,18.4-20.9c-0.8-5.9-4.8-9.6-9.5-9c-1.5,0.2-3.3,0.9-4.9,2.8c2.1-0.3,2.9,0.9,3,1.9c0.2,1.6-0.8,3-2.8,3.3
			c-2,0.3-3.6-1.6-4.3-5.1c-1.5-9.6,6.2-23.9,27-26.9c4.5-0.7,10.2-0.2,16.1,1.2c2.8,0.7,2.1,1.1-0.1,2.2
			c-4.8,2.5-8.8,8.1-11.1,13.6c-11.6,27.7-26.5,71.6-49.4,74.9c-4.1,0.6-6.4-1.2-6.7-3.1c-0.3-2,0.8-3.8,3.2-4.1
			c2.1-0.3,3.4,0.9,3.6,2.1c0.2,1.3-0.9,2.4-0.7,2.4c6.6,0.3,11.2-5.2,10.4-11c-0.9-6.5-8.5-13.5-20.3-11.7
			c-14.9,2.2-24.2,14.9-22,30.4c2.5,16.9,18.1,23.3,33.1,21.2c37.3-5.4,52.6-62.9,61.1-96.3c1.7-6.9,4.6-15.3,9.5-18.1
			c1.8,0.5,3.8,1.2,5.9,2c-4.3,7.8-8.1,17.6-11.2,29.4l-15.8,47.4c2.9-1.6,6.8-3.4,11.6-4.4c4.1-0.9,10.1-0.8,10.1-0.8l7.1-25.2
			C226.2,65.2,229.2,53.3,233.3,52.7 M251.8,15c-0.9,0.3-2.1,0.6-3.4,0.8c-1.2,0.2-2.3,0.2-3.5,0.2c2.8-3.4,5.7-5.7,8.6-6.1
			c2.1-0.3,3.3,0.1,3.4,1.1C257.2,13,253,14.5,251.8,15 M276.1,49.9c3.2-5.8,7.3-9.9,9.2-9.9l0,0c0.8,0,1.5,0.5,1.5,1.5
			c0.1,4.4-6.6,12.2-9.9,12.2c-0.7,0-1.1-0.2-1.3-0.6C275,52.1,275.7,50.5,276.1,49.9 M330.6,69.8c-1.5-10.5-11.2-15.5-19.3-14.3
			c-5.2,0.8-10.1,3.8-12.5,9.2c2.8-0.4,4,2.3,4.2,3.7c0.9,6-4.6,12.1-12.6,13.3c-8.9,1.3-14.1-5.3-15.5-15.3
			c-0.2-1.2-0.2-2.4-0.2-3.7c1.1,0.8,2.5,1.3,4.3,1.2c11.4-0.1,20.9-10.9,21.3-21.2c0.3-7.3-4-12.3-12.4-12.2v0c-1,0-2,0.1-3.1,0.2
			c-16.2,2.4-32.1,25.3-29,46.6c3,20.9,23.9,31.7,42.5,29C318.4,103.3,333.1,87.5,330.6,69.8"/>
	</defs>
	<clipPath id="SVGID_2_">
		<use xlink:href="#SVGID_1_"  style="overflow:visible;"/>
	</clipPath>
	<g class="st0">
		
			<linearGradient id="SVGID_3_" gradientUnits="userSpaceOnUse" x1="143.4714" y1="-458.5" x2="743.4714" y2="-458.5" gradientTransform="matrix(0 -1 1 0 740.4714 627.4714)">
			<stop  offset="0" style="stop-color:#54B193"/>
			<stop  offset="0.5" style="stop-color:#4C74B9"/>
			<stop  offset="1" style="stop-color:#5BB15F"/>
		</linearGradient>
		<polygon class="st1" points="582,-116 582,484 -18,484 -18,-116 		"/>
		
			<image style="overflow:visible;" width="2501" height="2501" xlink:href="775A43A50EFA161D.png"  transform="matrix(0.24 0 0 0.24 -18.2286 -116.16)">
		</image>
	</g>
</g>
</svg>